<svg width="24" height="24" viewBox="0 0 24 24" fill="none" xmlns="http://www.w3.org/2000/svg">
<path d="M12.9975 12.9975L19.0715 13.0045C19.3378 13.0045 19.5932 12.8988 19.7815 12.7105C19.9698 12.5221 20.0756 12.2668 20.0756 12.0005C20.0756 11.7342 19.9698 11.4788 19.7815 11.2905C19.5932 11.1021 19.3378 10.9964 19.0715 10.9964L12.9975 11.0034L13.0046 4.92939C13.0046 4.66308 12.8988 4.40769 12.7105 4.21939C12.5222 4.03108 12.2668 3.92529 12.0005 3.92529C11.7342 3.92529 11.4788 4.03108 11.2905 4.21939C11.1022 4.40769 10.9964 4.66308 10.9964 4.92939L11.0035 11.0034L4.92941 10.9964C4.7974 10.9958 4.66659 11.0214 4.54452 11.0717C4.42245 11.122 4.31155 11.1959 4.2182 11.2892C4.12485 11.3826 4.05091 11.4935 4.00064 11.6156C3.95038 11.7376 3.92477 11.8684 3.92532 12.0005C3.92477 12.1325 3.95038 12.2633 4.00064 12.3853C4.05091 12.5074 4.12485 12.6183 4.2182 12.7117C4.31155 12.805 4.42245 12.8789 4.54452 12.9292C4.66658 12.9795 4.7974 13.0051 4.92941 13.0045L11.0035 12.9975L10.9964 19.0715C10.9958 19.2035 11.0214 19.3343 11.0717 19.4564C11.122 19.5785 11.1959 19.6894 11.2893 19.7827C11.3826 19.8761 11.4935 19.95 11.6156 20.0003C11.7377 20.0506 11.8685 20.0762 12.0005 20.0756C12.1325 20.0762 12.2633 20.0506 12.3854 20.0003C12.5074 19.95 12.6183 19.8761 12.7117 19.7827C12.805 19.6894 12.879 19.5785 12.9292 19.4564C12.9795 19.3343 13.0051 19.2035 13.0046 19.0715L12.9975 12.9975Z" fill="#3E5481"/>
</svg>
