<svg width="16" height="16" viewBox="0 0 16 16" fill="none" xmlns="http://www.w3.org/2000/svg">
<path fill-rule="evenodd" clip-rule="evenodd" d="M10.8873 0.875608C11.3605 0.875608 11.833 0.942358 12.2823 1.09311C15.0505 1.99311 16.048 5.03061 15.2148 7.68561C14.7423 9.04236 13.9698 10.2806 12.958 11.2924C11.5098 12.6949 9.92052 13.9399 8.20977 15.0124L8.02227 15.1256L7.82727 15.0049C6.11052 13.9399 4.51227 12.6949 3.05052 11.2849C2.04552 10.2731 1.27227 9.04236 0.792268 7.68561C-0.0552318 5.03061 0.942268 1.99311 3.74052 1.07736C3.95802 1.00236 4.18227 0.949858 4.40727 0.920608H4.49727C4.70802 0.889858 4.91727 0.875608 5.12727 0.875608H5.20977C5.68227 0.889858 6.13977 0.972358 6.58302 1.12311H6.62727C6.65727 1.13736 6.67977 1.15311 6.69477 1.16736C6.86052 1.22061 7.01727 1.28061 7.16727 1.36311L7.45227 1.49061C7.52114 1.52734 7.59843 1.58346 7.66524 1.63196C7.70757 1.66269 7.74568 1.69036 7.77477 1.70811C7.78701 1.71533 7.79945 1.72259 7.81199 1.72991C7.8763 1.76745 7.94328 1.80655 7.99977 1.84986C8.83302 1.21311 9.84477 0.868108 10.8873 0.875608ZM12.8823 6.27561C13.1898 6.26736 13.4523 6.02061 13.4748 5.70486V5.61561C13.4973 4.56486 12.8605 3.61311 11.8923 3.24561C11.5848 3.13986 11.2473 3.30561 11.1348 3.62061C11.0298 3.93561 11.1948 4.28061 11.5098 4.39236C11.9905 4.57236 12.3123 5.04561 12.3123 5.56986V5.59311C12.298 5.76486 12.3498 5.93061 12.4548 6.05811C12.5598 6.18561 12.7173 6.25986 12.8823 6.27561Z" fill="white"/>
</svg>
